# xmcd
#
# Track frame offsets:
#	150
#	18170
#	35492
#	51966
#	69543
#	88790
#	104895
#	119183
#	138264
#	152313
#	172591
#	190185
#
# Disc length: 2765 seconds
#
# Revision: 1
# Processed by: cddbd v1.5.2PL0 Copyright (c) Steve Scherf et al.
# Submitted via: EasyCDDAExtractor 15.3.0.1
#
DISCID=9e0acb0c
DTITLE=Ednita Nazario - Desnuda
DYEAR=2012
DGENRE=Latin
TTITLE0=Voy
TTITLE1=Para El Peor Amante
TTITLE2=No Me Dejes Ir
TTITLE3=Tocame
TTITLE4=Tu Medicina
TTITLE5=La Pasion Tiene Memoria
TTITLE6=Sin Pensar (Featuring Black Guayaba)
TTITLE7=Alergica Al Amor
TTITLE8=Caida Libre
TTITLE9=Feliz A Escondidas
TTITLE10=Desnuda (Featuring Arthur Hanlon)
TTITLE11=Un Gato En La Oscuridad
EXTD=
EXTT0=
EXTT1=
EXTT2=
EXTT3=
EXTT4=
EXTT5=
EXTT6=
EXTT7=
EXTT8=
EXTT9=
EXTT10=
EXTT11=
PLAYORDER=
